<mxfile host="app.diagrams.net" modified="2023-06-01T11:13:34.814Z" agent="Mozilla/5.0 (Windows NT 10.0; Win64; x64) AppleWebKit/537.36 (KHTML, like Gecko) Chrome/113.0.0.0 Safari/537.36" etag="tnqOrUtfRrg97E_tInVB" version="21.3.6" type="github" pages="2">
  <diagram name="페이지-1" id="N4OSFqU1gijd7xc7nz6D">
    <mxGraphModel dx="595" dy="1905" grid="1" gridSize="10" guides="1" tooltips="1" connect="1" arrows="1" fold="1" page="1" pageScale="1" pageWidth="827" pageHeight="1169" math="0" shadow="0">
      <root>
        <mxCell id="0" />
        <mxCell id="1" parent="0" />
        <mxCell id="9-83KYWDqsgWYCN_nNXG-3" value="int number &lt;br&gt;int method" style="shape=parallelogram;perimeter=parallelogramPerimeter;whiteSpace=wrap;html=1;fixedSize=1;" vertex="1" parent="1">
          <mxGeometry x="140" y="60" width="120" height="50" as="geometry" />
        </mxCell>
        <mxCell id="9-83KYWDqsgWYCN_nNXG-5" value="original = number" style="rounded=0;whiteSpace=wrap;html=1;" vertex="1" parent="1">
          <mxGeometry x="140" y="150" width="120" height="60" as="geometry" />
        </mxCell>
        <mxCell id="9-83KYWDqsgWYCN_nNXG-20" style="edgeStyle=orthogonalEdgeStyle;rounded=0;orthogonalLoop=1;jettySize=auto;html=1;exitX=0.5;exitY=1;exitDx=0;exitDy=0;exitPerimeter=0;entryX=0.5;entryY=0;entryDx=0;entryDy=0;" edge="1" parent="1" source="9-83KYWDqsgWYCN_nNXG-6" target="9-83KYWDqsgWYCN_nNXG-17">
          <mxGeometry relative="1" as="geometry" />
        </mxCell>
        <mxCell id="9-83KYWDqsgWYCN_nNXG-6" value="진수 변환&lt;br&gt;i : 0, 1, original" style="strokeWidth=2;html=1;shape=mxgraph.flowchart.loop_limit;whiteSpace=wrap;" vertex="1" parent="1">
          <mxGeometry x="150" y="240" width="100" height="60" as="geometry" />
        </mxCell>
        <mxCell id="9-83KYWDqsgWYCN_nNXG-8" value="Start" style="strokeWidth=2;html=1;shape=mxgraph.flowchart.terminator;whiteSpace=wrap;" vertex="1" parent="1">
          <mxGeometry x="130" y="-140" width="140" height="60" as="geometry" />
        </mxCell>
        <mxCell id="9-83KYWDqsgWYCN_nNXG-11" value="int count = 0,&lt;br&gt;char change[100],&lt;br&gt;char alphabet[] = &quot;0123456789ABCDEFGHIJKLMNOPQRSTUVWXYZ&quot;" style="shape=hexagon;perimeter=hexagonPerimeter2;whiteSpace=wrap;html=1;fixedSize=1;" vertex="1" parent="1">
          <mxGeometry x="40" y="-50" width="320" height="80" as="geometry" />
        </mxCell>
        <mxCell id="9-83KYWDqsgWYCN_nNXG-12" value="" style="endArrow=classic;html=1;rounded=0;exitX=0.5;exitY=1;exitDx=0;exitDy=0;exitPerimeter=0;entryX=0.5;entryY=0;entryDx=0;entryDy=0;" edge="1" parent="1" source="9-83KYWDqsgWYCN_nNXG-8" target="9-83KYWDqsgWYCN_nNXG-11">
          <mxGeometry width="50" height="50" relative="1" as="geometry">
            <mxPoint x="180" y="190" as="sourcePoint" />
            <mxPoint x="230" y="140" as="targetPoint" />
          </mxGeometry>
        </mxCell>
        <mxCell id="9-83KYWDqsgWYCN_nNXG-13" value="" style="endArrow=classic;html=1;rounded=0;exitX=0.5;exitY=1;exitDx=0;exitDy=0;" edge="1" parent="1" source="9-83KYWDqsgWYCN_nNXG-11" target="9-83KYWDqsgWYCN_nNXG-3">
          <mxGeometry width="50" height="50" relative="1" as="geometry">
            <mxPoint x="180" y="190" as="sourcePoint" />
            <mxPoint x="230" y="140" as="targetPoint" />
          </mxGeometry>
        </mxCell>
        <mxCell id="9-83KYWDqsgWYCN_nNXG-14" value="" style="endArrow=classic;html=1;rounded=0;exitX=0.5;exitY=1;exitDx=0;exitDy=0;entryX=0.5;entryY=0;entryDx=0;entryDy=0;" edge="1" parent="1" source="9-83KYWDqsgWYCN_nNXG-3" target="9-83KYWDqsgWYCN_nNXG-5">
          <mxGeometry width="50" height="50" relative="1" as="geometry">
            <mxPoint x="180" y="190" as="sourcePoint" />
            <mxPoint x="230" y="140" as="targetPoint" />
          </mxGeometry>
        </mxCell>
        <mxCell id="9-83KYWDqsgWYCN_nNXG-16" value="" style="endArrow=classic;html=1;rounded=0;exitX=0.5;exitY=1;exitDx=0;exitDy=0;entryX=0.5;entryY=0;entryDx=0;entryDy=0;entryPerimeter=0;" edge="1" parent="1" source="9-83KYWDqsgWYCN_nNXG-5" target="9-83KYWDqsgWYCN_nNXG-6">
          <mxGeometry width="50" height="50" relative="1" as="geometry">
            <mxPoint x="180" y="290" as="sourcePoint" />
            <mxPoint x="230" y="240" as="targetPoint" />
          </mxGeometry>
        </mxCell>
        <mxCell id="9-83KYWDqsgWYCN_nNXG-22" style="edgeStyle=orthogonalEdgeStyle;rounded=0;orthogonalLoop=1;jettySize=auto;html=1;exitX=0.5;exitY=1;exitDx=0;exitDy=0;entryX=0.5;entryY=0;entryDx=0;entryDy=0;" edge="1" parent="1" source="9-83KYWDqsgWYCN_nNXG-17" target="9-83KYWDqsgWYCN_nNXG-21">
          <mxGeometry relative="1" as="geometry" />
        </mxCell>
        <mxCell id="9-83KYWDqsgWYCN_nNXG-17" value="count ++" style="rounded=0;whiteSpace=wrap;html=1;" vertex="1" parent="1">
          <mxGeometry x="140" y="330" width="120" height="40" as="geometry" />
        </mxCell>
        <mxCell id="9-83KYWDqsgWYCN_nNXG-23" value="N" style="edgeStyle=orthogonalEdgeStyle;rounded=0;orthogonalLoop=1;jettySize=auto;html=1;exitX=0.5;exitY=1;exitDx=0;exitDy=0;entryX=0.5;entryY=0;entryDx=0;entryDy=0;" edge="1" parent="1" source="9-83KYWDqsgWYCN_nNXG-21" target="9-83KYWDqsgWYCN_nNXG-32">
          <mxGeometry relative="1" as="geometry">
            <mxPoint x="200" y="540" as="targetPoint" />
          </mxGeometry>
        </mxCell>
        <mxCell id="9-83KYWDqsgWYCN_nNXG-24" value="Y" style="edgeStyle=orthogonalEdgeStyle;rounded=0;orthogonalLoop=1;jettySize=auto;html=1;exitX=1;exitY=0.5;exitDx=0;exitDy=0;" edge="1" parent="1" source="9-83KYWDqsgWYCN_nNXG-21" target="9-83KYWDqsgWYCN_nNXG-25">
          <mxGeometry relative="1" as="geometry">
            <mxPoint x="320" y="440" as="targetPoint" />
          </mxGeometry>
        </mxCell>
        <mxCell id="9-83KYWDqsgWYCN_nNXG-21" value="number &amp;lt; method" style="rhombus;whiteSpace=wrap;html=1;" vertex="1" parent="1">
          <mxGeometry x="140" y="400" width="120" height="80" as="geometry" />
        </mxCell>
        <mxCell id="9-83KYWDqsgWYCN_nNXG-28" style="edgeStyle=orthogonalEdgeStyle;rounded=0;orthogonalLoop=1;jettySize=auto;html=1;exitX=0.5;exitY=1;exitDx=0;exitDy=0;exitPerimeter=0;entryX=0.5;entryY=0;entryDx=0;entryDy=0;" edge="1" parent="1" source="9-83KYWDqsgWYCN_nNXG-25" target="9-83KYWDqsgWYCN_nNXG-26">
          <mxGeometry relative="1" as="geometry" />
        </mxCell>
        <mxCell id="9-83KYWDqsgWYCN_nNXG-25" value="진수에 알파벳이 포함 될때&lt;br&gt;j : 0, 1, 37" style="strokeWidth=2;html=1;shape=mxgraph.flowchart.loop_limit;whiteSpace=wrap;" vertex="1" parent="1">
          <mxGeometry x="320" y="410" width="150" height="60" as="geometry" />
        </mxCell>
        <mxCell id="9-83KYWDqsgWYCN_nNXG-29" style="edgeStyle=orthogonalEdgeStyle;rounded=0;orthogonalLoop=1;jettySize=auto;html=1;exitX=0.5;exitY=1;exitDx=0;exitDy=0;entryX=0.5;entryY=0;entryDx=0;entryDy=0;" edge="1" parent="1" source="9-83KYWDqsgWYCN_nNXG-26" target="9-83KYWDqsgWYCN_nNXG-27">
          <mxGeometry relative="1" as="geometry" />
        </mxCell>
        <mxCell id="9-83KYWDqsgWYCN_nNXG-26" value="number = j" style="rhombus;whiteSpace=wrap;html=1;" vertex="1" parent="1">
          <mxGeometry x="355" y="490" width="80" height="80" as="geometry" />
        </mxCell>
        <mxCell id="9-83KYWDqsgWYCN_nNXG-31" style="edgeStyle=orthogonalEdgeStyle;rounded=0;orthogonalLoop=1;jettySize=auto;html=1;exitX=0.5;exitY=1;exitDx=0;exitDy=0;entryX=0.5;entryY=1;entryDx=0;entryDy=0;entryPerimeter=0;" edge="1" parent="1" source="9-83KYWDqsgWYCN_nNXG-27" target="9-83KYWDqsgWYCN_nNXG-30">
          <mxGeometry relative="1" as="geometry" />
        </mxCell>
        <mxCell id="9-83KYWDqsgWYCN_nNXG-27" value="change[i] = alphabet[j]" style="rounded=0;whiteSpace=wrap;html=1;" vertex="1" parent="1">
          <mxGeometry x="335" y="600" width="120" height="60" as="geometry" />
        </mxCell>
        <mxCell id="9-83KYWDqsgWYCN_nNXG-33" style="edgeStyle=orthogonalEdgeStyle;rounded=0;orthogonalLoop=1;jettySize=auto;html=1;exitX=0.5;exitY=0;exitDx=0;exitDy=0;exitPerimeter=0;entryX=1;entryY=0.594;entryDx=0;entryDy=0;entryPerimeter=0;" edge="1" parent="1" source="9-83KYWDqsgWYCN_nNXG-30" target="9-83KYWDqsgWYCN_nNXG-32">
          <mxGeometry relative="1" as="geometry" />
        </mxCell>
        <mxCell id="9-83KYWDqsgWYCN_nNXG-30" value="&#xa;&lt;span style=&quot;color: rgb(0, 0, 0); font-family: Helvetica; font-size: 12px; font-style: normal; font-variant-ligatures: normal; font-variant-caps: normal; font-weight: 400; letter-spacing: normal; orphans: 2; text-align: center; text-indent: 0px; text-transform: none; widows: 2; word-spacing: 0px; -webkit-text-stroke-width: 0px; background-color: rgb(251, 251, 251); text-decoration-thickness: initial; text-decoration-style: initial; text-decoration-color: initial; float: none; display: inline !important;&quot;&gt;진수에 알파벳이 포함 될때&lt;/span&gt;&#xa;&#xa;" style="strokeWidth=2;html=1;shape=mxgraph.flowchart.loop_limit;whiteSpace=wrap;rotation=-180;" vertex="1" parent="1">
          <mxGeometry x="315" y="680" width="155" height="60" as="geometry" />
        </mxCell>
        <mxCell id="m2W9d-t1-52_3W5aY3tF-4" style="edgeStyle=orthogonalEdgeStyle;rounded=0;orthogonalLoop=1;jettySize=auto;html=1;exitX=0.5;exitY=1;exitDx=0;exitDy=0;entryX=0.5;entryY=0;entryDx=0;entryDy=0;entryPerimeter=0;" edge="1" parent="1" source="9-83KYWDqsgWYCN_nNXG-32" target="m2W9d-t1-52_3W5aY3tF-2">
          <mxGeometry relative="1" as="geometry" />
        </mxCell>
        <mxCell id="9-83KYWDqsgWYCN_nNXG-32" value="change[i] = &lt;br&gt;alphabet[number % method]&lt;br&gt;&lt;br&gt;number /= method" style="rounded=0;whiteSpace=wrap;html=1;" vertex="1" parent="1">
          <mxGeometry x="110" y="750" width="180" height="60" as="geometry" />
        </mxCell>
        <mxCell id="m2W9d-t1-52_3W5aY3tF-5" style="edgeStyle=orthogonalEdgeStyle;rounded=0;orthogonalLoop=1;jettySize=auto;html=1;exitX=0.5;exitY=1;exitDx=0;exitDy=0;exitPerimeter=0;entryX=0.5;entryY=0;entryDx=0;entryDy=0;" edge="1" parent="1" source="m2W9d-t1-52_3W5aY3tF-2" target="m2W9d-t1-52_3W5aY3tF-3">
          <mxGeometry relative="1" as="geometry" />
        </mxCell>
        <mxCell id="m2W9d-t1-52_3W5aY3tF-2" value="출력문&lt;br&gt;int i : count-1, -1, 0" style="strokeWidth=2;html=1;shape=mxgraph.flowchart.loop_limit;whiteSpace=wrap;" vertex="1" parent="1">
          <mxGeometry x="140" y="840" width="120" height="60" as="geometry" />
        </mxCell>
        <mxCell id="m2W9d-t1-52_3W5aY3tF-3" value="change[i]" style="shape=document;whiteSpace=wrap;html=1;boundedLbl=1;" vertex="1" parent="1">
          <mxGeometry x="140" y="920" width="120" height="50" as="geometry" />
        </mxCell>
        <mxCell id="m2W9d-t1-52_3W5aY3tF-6" value="출력문" style="strokeWidth=2;html=1;shape=mxgraph.flowchart.loop_limit;whiteSpace=wrap;rotation=-180;" vertex="1" parent="1">
          <mxGeometry x="140" y="990" width="110" height="60" as="geometry" />
        </mxCell>
        <mxCell id="m2W9d-t1-52_3W5aY3tF-7" value="" style="endArrow=classic;html=1;rounded=0;exitX=0.503;exitY=0.895;exitDx=0;exitDy=0;exitPerimeter=0;entryX=0.451;entryY=1.053;entryDx=0;entryDy=0;entryPerimeter=0;" edge="1" parent="1" source="m2W9d-t1-52_3W5aY3tF-3" target="m2W9d-t1-52_3W5aY3tF-6">
          <mxGeometry width="50" height="50" relative="1" as="geometry">
            <mxPoint x="260" y="910" as="sourcePoint" />
            <mxPoint x="310" y="860" as="targetPoint" />
          </mxGeometry>
        </mxCell>
      </root>
    </mxGraphModel>
  </diagram>
  <diagram id="dvFHFZecSLQkT2yi1SYL" name="페이지-2">
    <mxGraphModel dx="714" dy="867" grid="1" gridSize="10" guides="1" tooltips="1" connect="1" arrows="1" fold="1" page="1" pageScale="1" pageWidth="827" pageHeight="1169" math="0" shadow="0">
      <root>
        <mxCell id="0" />
        <mxCell id="1" parent="0" />
        <mxCell id="5AatXrTJtkRJzL3oTD8B-10" style="edgeStyle=orthogonalEdgeStyle;rounded=0;orthogonalLoop=1;jettySize=auto;html=1;exitX=0.5;exitY=1;exitDx=0;exitDy=0;entryX=0.5;entryY=0;entryDx=0;entryDy=0;" parent="1" source="5AatXrTJtkRJzL3oTD8B-1" target="5AatXrTJtkRJzL3oTD8B-3" edge="1">
          <mxGeometry relative="1" as="geometry" />
        </mxCell>
        <mxCell id="5AatXrTJtkRJzL3oTD8B-1" value="int before, beforeNumber, &lt;br&gt;after" style="shape=parallelogram;perimeter=parallelogramPerimeter;whiteSpace=wrap;html=1;fixedSize=1;" parent="1" vertex="1">
          <mxGeometry x="180" y="110" width="120" height="60" as="geometry" />
        </mxCell>
        <mxCell id="5AatXrTJtkRJzL3oTD8B-11" style="edgeStyle=orthogonalEdgeStyle;rounded=0;orthogonalLoop=1;jettySize=auto;html=1;exitX=0.5;exitY=1;exitDx=0;exitDy=0;exitPerimeter=0;entryX=0.5;entryY=0;entryDx=0;entryDy=0;" parent="1" source="5AatXrTJtkRJzL3oTD8B-2" target="5AatXrTJtkRJzL3oTD8B-1" edge="1">
          <mxGeometry relative="1" as="geometry" />
        </mxCell>
        <mxCell id="5AatXrTJtkRJzL3oTD8B-2" value="Start" style="strokeWidth=2;html=1;shape=mxgraph.flowchart.start_1;whiteSpace=wrap;" parent="1" vertex="1">
          <mxGeometry x="190" y="20" width="100" height="60" as="geometry" />
        </mxCell>
        <mxCell id="5AatXrTJtkRJzL3oTD8B-9" style="edgeStyle=orthogonalEdgeStyle;rounded=0;orthogonalLoop=1;jettySize=auto;html=1;exitX=0.5;exitY=1;exitDx=0;exitDy=0;entryX=0.5;entryY=0;entryDx=0;entryDy=0;entryPerimeter=0;" parent="1" source="5AatXrTJtkRJzL3oTD8B-3" target="5AatXrTJtkRJzL3oTD8B-4" edge="1">
          <mxGeometry relative="1" as="geometry" />
        </mxCell>
        <mxCell id="5AatXrTJtkRJzL3oTD8B-3" value="int afterNumber = 0&lt;br&gt;int count = 0&lt;br&gt;char change[100]&lt;br&gt;char alphabet[] =&amp;nbsp;&lt;br&gt;&quot;0123456789ABCDEFGHIJKLMNOPQRSTUVWXYZ&quot;" style="rounded=0;whiteSpace=wrap;html=1;" parent="1" vertex="1">
          <mxGeometry x="90" y="200" width="300" height="90" as="geometry" />
        </mxCell>
        <mxCell id="5AatXrTJtkRJzL3oTD8B-7" style="edgeStyle=orthogonalEdgeStyle;rounded=0;orthogonalLoop=1;jettySize=auto;html=1;exitX=0.5;exitY=1;exitDx=0;exitDy=0;exitPerimeter=0;entryX=0.5;entryY=0;entryDx=0;entryDy=0;" parent="1" source="5AatXrTJtkRJzL3oTD8B-4" target="5AatXrTJtkRJzL3oTD8B-5" edge="1">
          <mxGeometry relative="1" as="geometry" />
        </mxCell>
        <mxCell id="5AatXrTJtkRJzL3oTD8B-4" value="입력 숫자 -&amp;gt; 10진수로 변환&lt;br&gt;int i : 0, 1, 10" style="strokeWidth=2;html=1;shape=mxgraph.flowchart.loop_limit;whiteSpace=wrap;" parent="1" vertex="1">
          <mxGeometry x="165" y="320" width="150" height="60" as="geometry" />
        </mxCell>
        <mxCell id="5AatXrTJtkRJzL3oTD8B-8" style="edgeStyle=orthogonalEdgeStyle;rounded=0;orthogonalLoop=1;jettySize=auto;html=1;exitX=0.5;exitY=1;exitDx=0;exitDy=0;entryX=0.5;entryY=1;entryDx=0;entryDy=0;entryPerimeter=0;" parent="1" source="5AatXrTJtkRJzL3oTD8B-5" target="5AatXrTJtkRJzL3oTD8B-6" edge="1">
          <mxGeometry relative="1" as="geometry" />
        </mxCell>
        <mxCell id="5AatXrTJtkRJzL3oTD8B-5" value="temp[i] = beforeNumber % 10&lt;br&gt;beforeNumber /= 10" style="rounded=0;whiteSpace=wrap;html=1;" parent="1" vertex="1">
          <mxGeometry x="155" y="400" width="170" height="60" as="geometry" />
        </mxCell>
        <mxCell id="5AatXrTJtkRJzL3oTD8B-6" value="&#xa;&lt;span style=&quot;color: rgb(0, 0, 0); font-family: Helvetica; font-size: 12px; font-style: normal; font-variant-ligatures: normal; font-variant-caps: normal; font-weight: 400; letter-spacing: normal; orphans: 2; text-align: center; text-indent: 0px; text-transform: none; widows: 2; word-spacing: 0px; -webkit-text-stroke-width: 0px; background-color: rgb(251, 251, 251); text-decoration-thickness: initial; text-decoration-style: initial; text-decoration-color: initial; float: none; display: inline !important;&quot;&gt;입력 숫자 -&amp;gt; 10진수로 변환&lt;/span&gt;&#xa;&#xa;" style="strokeWidth=2;html=1;shape=mxgraph.flowchart.loop_limit;whiteSpace=wrap;rotation=-180;" parent="1" vertex="1">
          <mxGeometry x="160" y="480" width="160" height="60" as="geometry" />
        </mxCell>
        <mxCell id="5AatXrTJtkRJzL3oTD8B-12" value="" style="strokeWidth=2;html=1;shape=mxgraph.flowchart.loop_limit;whiteSpace=wrap;" parent="1" vertex="1">
          <mxGeometry x="430" y="320" width="100" height="60" as="geometry" />
        </mxCell>
      </root>
    </mxGraphModel>
  </diagram>
</mxfile>
